<?xml version="1.0" encoding="utf-8"?>
<!-- Generator: Adobe Illustrator 25.3.1, SVG Export Plug-In . SVG Version: 6.00 Build 0)  -->
<svg version="1.1" id="Camada_1" xmlns="http://www.w3.org/2000/svg" xmlns:xlink="http://www.w3.org/1999/xlink" x="0px" y="0px"
	 viewBox="0 0 200 72" style="enable-background:new 0 0 200 72;" xml:space="preserve">
<style type="text/css">
	.st0{fill-rule:evenodd;clip-rule:evenodd;fill:#06CFD2;}
	.st1{fill-rule:evenodd;clip-rule:evenodd;fill:url(#SVGID_1_);}
	.st2{fill-rule:evenodd;clip-rule:evenodd;fill:url(#SVGID_2_);}
	.st3{fill-rule:evenodd;clip-rule:evenodd;fill:url(#SVGID_3_);}
	.st4{fill-rule:evenodd;clip-rule:evenodd;fill:url(#SVGID_4_);}
	.st5{fill-rule:evenodd;clip-rule:evenodd;fill:url(#SVGID_5_);}
	.st6{fill-rule:evenodd;clip-rule:evenodd;fill:url(#SVGID_6_);}
	.st7{fill-rule:evenodd;clip-rule:evenodd;fill:url(#SVGID_7_);}
	.st8{fill-rule:evenodd;clip-rule:evenodd;fill:#25BFD5;}
	.st9{fill-rule:evenodd;clip-rule:evenodd;fill:url(#SVGID_8_);}
	.st10{fill-rule:evenodd;clip-rule:evenodd;fill:url(#SVGID_9_);}
	.st11{fill-rule:evenodd;clip-rule:evenodd;fill:url(#SVGID_10_);}
	.st12{fill-rule:evenodd;clip-rule:evenodd;fill:url(#SVGID_11_);}
	.st13{fill-rule:evenodd;clip-rule:evenodd;fill:url(#SVGID_12_);}
	.st14{fill-rule:evenodd;clip-rule:evenodd;fill:url(#SVGID_13_);}
	.st15{fill-rule:evenodd;clip-rule:evenodd;fill:url(#SVGID_14_);}
	.st16{fill-rule:evenodd;clip-rule:evenodd;fill:url(#SVGID_15_);}
	.st17{fill-rule:evenodd;clip-rule:evenodd;fill:url(#SVGID_16_);}
</style>
<g>
	<g>
		<path class="st0" d="M42.2,32.6c-0.9-0.2-2-0.5-3.1-0.7c6.4-2.8,14.3-10.1,14.1-13.2c0-0.2,0-0.5,0-0.6c0,0.2,0,0.3,0,0.5
			c3,3.9,7.9,5.8,12.7,5.1v-0.1c-1.1,1.3-2.6,2.2-4.2,2.5c-1.7,0.3-3.4,0-4.8-0.8C55.2,24.1,47.3,28.3,42.2,32.6L42.2,32.6z
			 M53.2,17.9L53.2,17.9L53.2,17.9z"/>
		
			<linearGradient id="SVGID_1_" gradientUnits="userSpaceOnUse" x1="-342.6945" y1="52.0961" x2="-342.4329" y2="50.9009" gradientTransform="matrix(22.4057 -3.5487 2.1614 13.6464 7584.71 -1860.8124)">
			<stop  offset="0" style="stop-color:#00E79F"/>
			<stop  offset="1" style="stop-color:#01E8D1"/>
		</linearGradient>
		<path class="st1" d="M6.5,47.4c4.6,15.3,23.4,16.5,31.6,6.2v0.1c-3.7,9.8-14.7,14.8-24.4,11c-3.9-1.5-7.3-4.3-9.5-8
			C4.5,53.5,5.3,50.4,6.5,47.4z"/>
		
			<linearGradient id="SVGID_2_" gradientUnits="userSpaceOnUse" x1="-300.3036" y1="50.0784" x2="-298.7159" y2="47.7825" gradientTransform="matrix(4.3354 -0.6867 2.2287 14.0716 1193.9072 -854.7206)">
			<stop  offset="0" style="stop-color:#09D4B0"/>
			<stop  offset="1" style="stop-color:#05DCD7"/>
		</linearGradient>
		<path class="st2" d="M6,34.8c0,0.1,0,0.2,0,0.4c-0.6,4.1-0.5,8.3,0.6,12.3c-1.3,2.9-2.1,6.1-2.5,9.3C0,49.8,0.8,41,6,34.8z"/>
		
			<linearGradient id="SVGID_3_" gradientUnits="userSpaceOnUse" x1="-343.5638" y1="30.3235" x2="-342.1325" y2="30.6844" gradientTransform="matrix(23.3567 -3.6993 3.4218 21.6044 7928.373 -1882.8706)">
			<stop  offset="0" style="stop-color:#01E8D1"/>
			<stop  offset="0.741" style="stop-color:#04D5C3"/>
			<stop  offset="1" style="stop-color:#08C2B5"/>
		</linearGradient>
		<path class="st3" d="M22.2,28.2c-0.1,0.6-0.1,1.4,0,2c0.1,15,8.5,18.6,20.8,21.1c-0.5,0-0.9,0-1.4,0c-1.5,0-2.8,0.8-3.3,2.2
			c0,0.1-0.1,0.1-0.1,0.2C28.1,66.3,2,61.7,6,34.8C10,30,16.1,27.5,22.2,28.2L22.2,28.2z"/>
		
			<linearGradient id="SVGID_4_" gradientUnits="userSpaceOnUse" x1="-333.5829" y1="62.5793" x2="-332.0794" y2="62.5793" gradientTransform="matrix(11.5969 -1.8368 1.787 11.2827 3761.7729 -1279.8967)">
			<stop  offset="0" style="stop-color:#05DCD7"/>
			<stop  offset="1" style="stop-color:#08C2B5"/>
		</linearGradient>
		<path class="st4" d="M6.5,47.4C5.4,43.2,5.3,38.9,6,34.7c1.1-1.3,2.4-2.5,3.9-3.5c2.2-1.5,4.7-2.5,7.3-2.9
			c1.4-0.3,2.8-0.4,4.1-0.3C12.1,33,7,44.8,6.5,47.4z"/>
		
			<linearGradient id="SVGID_5_" gradientUnits="userSpaceOnUse" x1="-337.8025" y1="65.0601" x2="-334.8315" y2="63.764" gradientTransform="matrix(15.3306 -2.4281 1.7574 11.096 5114.8086 -1472.697)">
			<stop  offset="0" style="stop-color:#08C2B5"/>
			<stop  offset="1" style="stop-color:#00E3A4"/>
		</linearGradient>
		<path class="st5" d="M77.6,59.8L77.6,59.8c0,6.5-5.3,11.8-11.8,11.7c-5.7,0-10.5-4.1-11.5-9.7l0,0c-0.3-1.4-0.2-2.8,0-4
			c0.1-0.4,0.1-0.6,0-1c0-0.1,0-0.2-0.1-0.3C63.3,67.3,68.4,68,77.6,59.8L77.6,59.8z"/>
		
			<linearGradient id="SVGID_6_" gradientUnits="userSpaceOnUse" x1="-339.961" y1="62.055" x2="-342.0358" y2="60.2132" gradientTransform="matrix(19.69 -3.1186 1.8275 11.5381 6651.5044 -1718.0614)">
			<stop  offset="0" style="stop-color:#00E3A4"/>
			<stop  offset="0.361" style="stop-color:#12D1BC"/>
			<stop  offset="1" style="stop-color:#25BFD5"/>
		</linearGradient>
		<path class="st6" d="M56.9,51l0.2-0.1c0.6-0.1,1.3-0.4,1.8-0.7c1.5-1,3.1-1.7,4.9-2.1c6.3-1.1,12.4,3.1,13.6,9.5v0.1
			c0.1,0.7,0.2,1.5,0.2,2.2c-9.2,8.3-14.3,7.5-23.3-3.5c-0.3-0.6-0.6-1.3-1.2-1.7c-1.7-1.3-3.8-2.1-6-2.6l-1-0.3
			C49.8,52.4,53.5,52.2,56.9,51z"/>
		
			<linearGradient id="SVGID_7_" gradientUnits="userSpaceOnUse" x1="-341.3043" y1="36.1256" x2="-342.3463" y2="36.7706" gradientTransform="matrix(20.6714 -3.274 2.9474 18.609 6988.207 -1750.1211)">
			<stop  offset="0" style="stop-color:#08C2B5"/>
			<stop  offset="1" style="stop-color:#25BFD5"/>
		</linearGradient>
		<path class="st7" d="M38.9,31.8c1.1,0.3,2.1,0.6,3,0.7h0.1c-0.1,0.1-0.2,0.2-0.3,0.2l0,0c-2.8,2.5-4.9,4.9-4.1,6.4
			c0.6,1.4,1.1,2.9,1.4,4.4c0.3,1.3,0.9,2.4,1.9,3.2c2,1.5,4.3,2.5,6.7,3c2.9,1,6.1,1.5,9.2,1.2l0,0c-3.5,1.1-7.2,1.4-10.8,0.7
			c-1-0.3-2.1-0.5-3.1-0.6c-12.8-2.6-21.5-6.4-20.7-23c3.6,0.4,7.1,1.7,9.9,3.9C33.7,33.3,36.2,33,38.9,31.8L38.9,31.8z"/>
		<path class="st8" d="M65.8,23.5c-4.9,0.6-9.7-1.3-12.7-5.1c0.1-3.4,2.6-6.2,6-6.7c3.9-0.7,7.7,1.8,8.4,5.8
			C67.9,19.6,67.3,21.8,65.8,23.5L65.8,23.5z"/>
		
			<linearGradient id="SVGID_8_" gradientUnits="userSpaceOnUse" x1="-320.7051" y1="48.9374" x2="-320.451" y2="50.429" gradientTransform="matrix(7.706 -1.2205 2.2384 14.1328 2423.9175 -1040.4979)">
			<stop  offset="0" style="stop-color:#05DCD7"/>
			<stop  offset="0.369" style="stop-color:#15CED6"/>
			<stop  offset="1" style="stop-color:#25BFD5"/>
		</linearGradient>
		<path class="st9" d="M66,44.3C66,44.1,65.9,43.8,66,44.3z M69.6,50.6c0.3,0.1,0.6,0.3,0.8,0.4l-0.3-0.2c-4.8,1.4-8.4,5.2-9.5,10.1
			c-0.4-0.7-0.7-1.5-0.8-2.3c-0.5-2.3,0.4-4.7,2-6.3c2.3-2.3,2-7,1.1-11.1c0-0.2-0.5-2.2-0.5-2.2c1.6,1.6,2.8,3.5,3.5,5.6
			C66.1,44.4,67.1,49.6,69.6,50.6L69.6,50.6z M70.5,51C70.5,51,70.6,51,70.5,51C70.5,51,70.5,51,70.5,51L70.5,51z"/>
		
			<linearGradient id="SVGID_9_" gradientUnits="userSpaceOnUse" x1="-325.489" y1="83.4111" x2="-326.0348" y2="86.8" gradientTransform="matrix(9.1735 -1.4529 1.3648 8.6169 2939.7246 -1143.8391)">
			<stop  offset="0" style="stop-color:#25BFD5"/>
			<stop  offset="0.761" style="stop-color:#13D1BD"/>
			<stop  offset="1" style="stop-color:#00E3A4"/>
		</linearGradient>
		<path class="st10" d="M60.8,61c1.1-4.9,4.7-8.7,9.5-10.1c3.6,1.7,5,6.1,3.3,9.6s-6.1,5-9.6,3.3C62.5,63.2,61.5,62.2,60.8,61
			L60.8,61z"/>
		
			<linearGradient id="SVGID_10_" gradientUnits="userSpaceOnUse" x1="-340.5025" y1="36.8651" x2="-341.6752" y2="38.2077" gradientTransform="matrix(20.6071 -3.2638 2.8277 17.8535 6974.0581 -1766.3033)">
			<stop  offset="0" style="stop-color:#05DCD7"/>
			<stop  offset="1" style="stop-color:#08C2B5"/>
		</linearGradient>
		<path class="st11" d="M57.3,1.1c4,1.7,7.6,4.2,10.5,7.5C58,12.4,51,26.3,39.6,31.5c0.2-0.1,0.3-0.2,0.5-0.4c3.7-2.7,7.1-6,6.1-8.8
			c-0.3-0.8-0.6-1.7-0.6-2.6C43.9,11.4,49.1,3.3,57.3,1.1L57.3,1.1z"/>
		
			<linearGradient id="SVGID_11_" gradientUnits="userSpaceOnUse" x1="-330.791" y1="103.1069" x2="-329.5912" y2="104.445" gradientTransform="matrix(11.0621 -1.7521 1.097 6.9261 3604.5659 -1292.9771)">
			<stop  offset="0" style="stop-color:#01E8D1"/>
			<stop  offset="0.741" style="stop-color:#01E8B8"/>
			<stop  offset="1" style="stop-color:#00E79F"/>
		</linearGradient>
		<path class="st12" d="M75.6,8.8L75.6,8.8c-0.2-0.2-0.3-0.5-0.4-0.6C75.3,8.4,75.4,8.6,75.6,8.8z M67.7,8.6
			c-2.8-3.3-6.4-5.9-10.5-7.5C57.6,1,58,0.9,58.5,0.8c6.5-1.2,13,1.7,16.6,7.3C72.6,7.6,70.1,7.8,67.7,8.6L67.7,8.6z"/>
		
			<linearGradient id="SVGID_12_" gradientUnits="userSpaceOnUse" x1="-341.8461" y1="51.5686" x2="-340.7019" y2="50.6951" gradientTransform="matrix(20.3098 -3.2168 2.168 13.6881 6850.3413 -1750.9967)">
			<stop  offset="0" style="stop-color:#25BFD5"/>
			<stop  offset="0.569" style="stop-color:#17C0C5"/>
			<stop  offset="1" style="stop-color:#08C2B5"/>
		</linearGradient>
		<path class="st13" d="M43.3,31.8c-0.6,0.5-1.3,1-1.9,1.5c-3.3,2.4-6.5,5-5.9,8.4c0.1,0.4,0.1,0.7,0.2,1.1c0,0.1,0,0.2,0,0.3
			c0.1,1.9-0.3,3.8-1,5.5c-0.9,1.8-2.3,3.5-3.9,4.8c-4.9,3.5-11.6,2.7-15.5-1.8c11.3,1.3,10.9-13.1,27.3-19.9
			C42.7,31.7,43,31.7,43.3,31.8L43.3,31.8z"/>
		
			<linearGradient id="SVGID_13_" gradientUnits="userSpaceOnUse" x1="-342.3008" y1="57.1963" x2="-340.8741" y2="58.6981" gradientTransform="matrix(20.9127 -3.3122 1.926 12.1601 7060.7012 -1794.4894)">
			<stop  offset="0" style="stop-color:#05DCD7"/>
			<stop  offset="0.259" style="stop-color:#06CFC6"/>
			<stop  offset="1" style="stop-color:#08C2B5"/>
		</linearGradient>
		<path class="st14" d="M12.1,43.9c-0.1-6.5,5-11.8,11.6-11.9c2.5,0,4.9,0.7,6.9,2.1c2,1.4,5,0,8.1-2c1.4-0.2,2.2-0.3,3.7-0.5
			c-16.2,6.8-15.9,21.2-27.2,19.9C13.2,49.5,12.2,46.7,12.1,43.9z"/>
		
			<linearGradient id="SVGID_14_" gradientUnits="userSpaceOnUse" x1="-343.3848" y1="55.8453" x2="-343.1909" y2="57.4089" gradientTransform="matrix(25.4568 -4.032 1.962 12.3876 8684.333 -2061.2395)">
			<stop  offset="0" style="stop-color:#08C2B5"/>
			<stop  offset="1" style="stop-color:#09D4B0"/>
		</linearGradient>
		<path class="st15" d="M51.3,29.7L51.3,29.7L51.3,29.7z M50.5,29.3C50.5,29.3,50.5,29.2,50.5,29.3C50.5,29.2,50.5,29.3,50.5,29.3
			L50.5,29.3z M50.4,29.2L50.4,29.2L50.4,29.2z M50.1,29.1L50.1,29.1C50,29.1,50.1,29.1,50.1,29.1z M43.5,31.6c-0.4,0-0.7,0-1.1,0.1
			c9.1-5.5,23-13.3,34.1-8.5l0,0c-0.3-4.5-7.3-14-8.7-14.5C58,12.4,51,26.3,39.6,31.5c-0.3,0.2-0.6,0.5-0.9,0.6
			c1.2-0.2,2.5-0.4,3.8-0.5"/>
		
			<linearGradient id="SVGID_15_" gradientUnits="userSpaceOnUse" x1="-341.8466" y1="46.8381" x2="-342.7141" y2="47.2681" gradientTransform="matrix(22.9598 -3.6365 2.3296 14.7087 7807.2549 -1901)">
			<stop  offset="0" style="stop-color:#09D4B0"/>
			<stop  offset="1" style="stop-color:#08C2B5"/>
		</linearGradient>
		<path class="st16" d="M66.1,44.4c-0.7-2.1-1.9-4-3.5-5.6c-0.6-3-0.9-5.2-4.4-6.1c-2.3-0.5-4.4-1.4-6.3-2.8
			c-2.8-2.3-5.6-0.6-8.5,1.7c-0.4,0-0.6-0.1-0.9-0.1c9.1-5.5,23-13.3,34.1-8.4c-1.7,3.9-4.6,6.9-8.4,8.6c-2.6,1.1-2.8,5-2.5,8.9
			C65.6,42,65.8,43.2,66.1,44.4z"/>
		
			<linearGradient id="SVGID_16_" gradientUnits="userSpaceOnUse" x1="-307.8992" y1="67.1524" x2="-309.1336" y2="67.7343" gradientTransform="matrix(5.7375 -0.9087 1.6554 10.4519 1731.9285 -970.9311)">
			<stop  offset="0" style="stop-color:#00E79F"/>
			<stop  offset="1" style="stop-color:#08C2B5"/>
		</linearGradient>
		<path class="st17" d="M75.2,8.2c-0.1,0-0.1-0.1-0.2-0.1c-2.4-0.5-5-0.3-7.3,0.6c1.3,0.5,8.4,9.9,8.7,14.4c0,0,0,0,0,0.1
			c1.2-2.8,1.6-6.1,1-9.2C77.1,11.9,76.4,10,75.2,8.2C75.2,8.3,75.2,8.3,75.2,8.2L75.2,8.2z"/>
	</g>
	<path d="M109.3,20.1c1.6,0,3,0.5,4.3,1.4c1.4,0.9,2.5,2.1,3.3,3.6c0.8,1.6,1.3,3.2,1.2,5c0,1.7-0.5,3.4-1.2,5
		c-0.7,1.5-1.9,2.8-3.3,3.7c-1.3,0.8-2.8,1.4-4.3,1.4h-7.7v8.4c0,0.7-0.2,1.4-0.7,1.9c-0.5,0.5-1.2,0.7-1.8,0.7s-1.4-0.3-1.8-0.7
		c-0.5-0.6-0.7-1.2-0.7-1.9V22.9c0-0.7,0.3-1.4,0.7-1.9c0.6-0.6,1.2-0.8,1.9-0.7L109.3,20.1L109.3,20.1z M109.3,35
		c0.6,0,1.2-0.3,1.7-0.7c0.6-0.6,1-1.1,1.3-1.8c0.4-0.7,0.6-1.6,0.6-2.4c0-0.8-0.2-1.7-0.6-2.4c-0.3-0.7-0.7-1.3-1.3-1.8
		c-0.5-0.5-1-0.6-1.7-0.6h-7.7v9.7L109.3,35z M140.1,45.9c0.7,0,1.4,0.3,1.9,0.7c0.6,0.5,0.8,1.2,0.7,1.8c0,0.7-0.3,1.4-0.7,1.8
		c-0.6,0.5-1.2,0.7-1.9,0.7h-14.3c-0.7,0-1.4-0.3-1.9-0.7c-0.6-0.6-0.8-1.2-0.7-1.9V22.9c0-0.7,0.3-1.4,0.8-1.9
		c0.6-0.6,1.3-0.8,2-0.7c0.7,0,1.4,0.3,1.9,0.7c0.6,0.5,0.8,1.2,0.8,1.9v23H140.1z M165.8,46c0.7,0,1.4,0.3,1.9,0.7
		c0.5,0.5,0.7,1.1,0.7,1.7c0,0.6-0.3,1.4-0.7,1.8c-0.6,0.5-1.2,0.7-1.9,0.7H151c-0.7,0-1.4-0.3-1.9-0.7c-0.6-0.6-0.8-1.2-0.7-1.9
		V22.9c0-0.7,0.3-1.4,0.7-1.9c0.6-0.6,1.2-0.8,1.9-0.7h14.8c0.7,0,1.4,0.3,1.9,0.7s0.8,1.2,0.7,1.8c0,0.6-0.3,1.3-0.7,1.7
		c-0.6,0.5-1.2,0.7-1.9,0.6h-11.9v7.5h10c0.7,0,1.4,0.3,1.9,0.7c0.6,0.5,0.8,1.2,0.7,1.8c0,0.6-0.3,1.3-0.7,1.7
		c-0.6,0.5-1.2,0.7-1.9,0.6h-10v8.2L165.8,46z M197.9,47c0.4,0.5,0.6,1,0.6,1.7c0,0.7-0.3,1.4-0.8,1.9c-0.5,0.5-1.1,0.7-1.8,0.7
		c-0.8,0-1.7-0.5-2.2-1.1l-7.8-10.6L178.1,50c-0.5,0.7-1.3,1.2-2.2,1.2c-0.6,0-1.2-0.3-1.7-0.7s-0.7-1-0.7-1.7
		c0-0.6,0.3-1.3,0.6-1.8l8.5-11.5l-8.5-11.3c-0.4-0.5-0.6-1-0.6-1.6c0-0.7,0.3-1.4,0.8-1.9c0.5-0.5,1.2-0.8,1.8-0.8
		c0.8,0,1.7,0.5,2.2,1.1l7.8,10.3l7.6-10.1c0.3-0.4,0.6-0.7,1-0.9c0.4-0.2,0.7-0.4,1.1-0.4c0.6,0,1.3,0.3,1.7,0.7
		c0.5,0.5,0.7,1,0.7,1.7c0,0.6-0.2,1.1-0.6,1.6l-8.6,11.3L197.9,47z"/>
</g>
</svg>
