<svg xmlns="http://www.w3.org/2000/svg" xmlns:xlink="http://www.w3.org/1999/xlink" width="201.234" height="55" viewBox="0 0 201.234 55">
    <defs>
        <linearGradient id="rbnzzi5s6b" x1=".402" x2=".576" y1=".993" y2=".198" gradientUnits="objectBoundingBox">
            <stop offset="0" stop-color="#00e79f"/>
            <stop offset="1" stop-color="#01e8d1"/>
        </linearGradient>
        <linearGradient id="j4dotfmf1c" x1=".196" x2="1.252" y1="1.013" y2="-.514" gradientUnits="objectBoundingBox">
            <stop offset="0" stop-color="#09d4b0"/>
            <stop offset="1" stop-color="#05dcd7"/>
        </linearGradient>
        <linearGradient id="3sdmf7q0zd" x1=".011" x2=".963" y1=".565" y2=".805" gradientUnits="objectBoundingBox">
            <stop offset="0" stop-color="#01e8d1"/>
            <stop offset=".741" stop-color="#04d5c3"/>
            <stop offset="1" stop-color="#08c2b5"/>
        </linearGradient>
        <linearGradient id="p6yjfytqca" x2="1" y1=".5" y2=".5" gradientUnits="objectBoundingBox">
            <stop offset="0" stop-color="#05dcd7"/>
            <stop offset="1" stop-color="#08c2b5"/>
        </linearGradient>
        <linearGradient id="bgkd0o3h2e" x1="-.063" x2="1.913" y1="1.083" y2=".221" gradientUnits="objectBoundingBox">
            <stop offset="0" stop-color="#08c2b5"/>
            <stop offset="1" stop-color="#00e3a4"/>
        </linearGradient>
        <linearGradient id="yx60ksa2bf" x1="1.095" x2="-.285" y1=".279" y2="-.946" gradientUnits="objectBoundingBox">
            <stop offset="0" stop-color="#00e3a4"/>
            <stop offset=".361" stop-color="#12d1bc"/>
            <stop offset="1" stop-color="#25bfd5"/>
        </linearGradient>
        <linearGradient id="ihtlebt33g" x1=".508" x2="-.185" y1=".495" y2=".924" gradientUnits="objectBoundingBox">
            <stop offset="0" stop-color="#08c2b5"/>
            <stop offset="1" stop-color="#25bfd5"/>
        </linearGradient>
        <linearGradient id="zxlp0h47ih" x1=".625" x2=".794" y1=".127" y2="1.119" gradientUnits="objectBoundingBox">
            <stop offset="0" stop-color="#05dcd7"/>
            <stop offset=".369" stop-color="#15ced6"/>
            <stop offset="1" stop-color="#25bfd5"/>
        </linearGradient>
        <linearGradient id="58ucpggq4i" x1=".612" x2=".249" y1="-.262" y2="1.992" gradientUnits="objectBoundingBox">
            <stop offset="0" stop-color="#25bfd5"/>
            <stop offset=".761" stop-color="#13d1bd"/>
            <stop offset="1" stop-color="#00e3a4"/>
        </linearGradient>
        <linearGradient id="37kparashj" x1=".876" x2=".096" y1=".14" y2="1.033" xlink:href="#p6yjfytqca"/>
        <linearGradient id="th7cyw63xk" x1=".067" x2=".865" y1="-.009" y2=".881" gradientUnits="objectBoundingBox">
            <stop offset="0" stop-color="#01e8d1"/>
            <stop offset=".741" stop-color="#01e8b8"/>
            <stop offset="1" stop-color="#00e79f"/>
        </linearGradient>
        <linearGradient id="qz0hnhffwl" x1=".019" x2=".78" y1=".782" y2=".201" gradientUnits="objectBoundingBox">
            <stop offset="0" stop-color="#25bfd5"/>
            <stop offset=".569" stop-color="#17c0c5"/>
            <stop offset="1" stop-color="#08c2b5"/>
        </linearGradient>
        <linearGradient id="s40kmhzhcm" x1=".137" x2="1.086" y1="-.017" y2=".982" gradientUnits="objectBoundingBox">
            <stop offset="0" stop-color="#05dcd7"/>
            <stop offset=".259" stop-color="#06cfc6"/>
            <stop offset="1" stop-color="#08c2b5"/>
        </linearGradient>
        <linearGradient id="5whvvk0asn" x1=".621" x2=".75" y1=".184" y2="1.224" gradientUnits="objectBoundingBox">
            <stop offset="0" stop-color="#08c2b5"/>
            <stop offset="1" stop-color="#09d4b0"/>
        </linearGradient>
        <linearGradient id="au4vlkyzzo" x1=".622" x2=".045" y1=".231" y2=".517" gradientUnits="objectBoundingBox">
            <stop offset="0" stop-color="#09d4b0"/>
            <stop offset="1" stop-color="#08c2b5"/>
        </linearGradient>
        <linearGradient id="zawludq4up" x1=".966" x2=".145" y1=".25" y2=".637" gradientUnits="objectBoundingBox">
            <stop offset="0" stop-color="#00e79f"/>
            <stop offset="1" stop-color="#08c2b5"/>
        </linearGradient>
    </defs>
    <g fill-rule="evenodd">
        <path fill="#06cfd2" d="M1.984 8.538C1.4 8.308.706 8.007 0 7.707 4.535 6.575 10.432 2.578 10.69.475a4.213 4.213 0 0 1 .077-.426c-.021.1-.042.2-.056.293a9.092 9.092 0 0 0 7.819 4.682l.035-.035a4.789 4.789 0 0 1-3.046 1.174 4.84 4.84 0 0 1-3.081-1.034c-1.013-.8-6.631 1.125-10.453 3.41zm8.79-8.5L10.781 0z" transform="rotate(-9 53.15 4.183) translate(26.386 10.581)"/>
        <path fill="url(#rbnzzi5s6b)" d="M2.571 0c1.39 10.571 13.66 13.3 20.1 7.378.007.021.007.042.014.063A12.62 12.62 0 0 1 0 5.876 23.137 23.137 0 0 1 2.571 0z" transform="rotate(-9 53.15 4.183) translate(.904 25.17)"/>
        <path fill="url(#j4dotfmf1c)" d="M4.391 0c-.021.063-.035.133-.056.21a19.481 19.481 0 0 0-.866 8.16A23.136 23.136 0 0 0 .9 14.247 12.629 12.629 0 0 1 4.391 0z" transform="rotate(-9 53.15 4.183) translate(0 16.806)"/>
        <path fill="url(#3sdmf7q0zd)" d="M12.406.386a9.276 9.276 0 0 0-.231 1.314c-1.509 9.824 3.689 13.122 11.48 16.021a4.318 4.318 0 0 0-.9-.119 2.427 2.427 0 0 0-2.417 1.1c-.035.035-.07.063-.1.1-7.9 7.26-24.566 1.516-19.179-15.749A12.618 12.618 0 0 1 12.406.393z" transform="rotate(-9 53.15 4.183) translate(3.346 13.758)"/>
        <path fill="url(#p6yjfytqca)" d="M.131 11.42a19.589 19.589 0 0 1 .936-8.37 13.5 13.5 0 0 1 2.879-1.873A12.533 12.533 0 0 1 9.011 0a12.352 12.352 0 0 1 2.753.245C5.294 2.491.69 9.729.131 11.42z" transform="rotate(-9 53.15 4.183) translate(3.345 13.75)"/>
        <path fill="url(#bgkd0o3h2e)" d="M15.5 4.674l.021.014A7.813 7.813 0 0 1 0 3.57v-.027A7.677 7.677 0 0 1 .441.874 1.912 1.912 0 0 0 .546.2 2.009 2.009 0 0 0 .532 0c4.751 8.161 8.063 9.146 14.959 4.7z" transform="rotate(-9 53.15 4.183) translate(33.351 35.999)"/>
        <path fill="url(#yx60ksa2bf)" d="M7.183 1.175l.147-.021a3.125 3.125 0 0 0 1.265-.3A7.7 7.7 0 0 1 11.99 0a7.755 7.755 0 0 1 7.944 7.61 8.308 8.308 0 0 1-.1 1.446c-6.9 4.451-10.215 3.466-14.966-4.709a2.439 2.439 0 0 0-.636-1.223A11.016 11.016 0 0 0 .608.8L0 .525a15.407 15.407 0 0 0 7.183.65z" transform="rotate(-9 53.15 4.183) translate(29.013 31.645)"/>
        <path fill="url(#ihtlebt33g)" d="M11.124 4.15c.7.3 1.356.58 1.935.811l.049.021c-.063.035-.126.077-.189.112l-.028.014C10.761 6.414 9.21 7.8 9.5 8.88a12.585 12.585 0 0 1 .44 3.053 3.559 3.559 0 0 0 .95 2.3 12.275 12.275 0 0 0 4.087 2.69 15.088 15.088 0 0 0 5.932 1.74l.021.014a15.407 15.407 0 0 1-7.183-.65 12.553 12.553 0 0 0-2.012-.7C3.613 14.3-1.7 10.851.5 0a12.64 12.64 0 0 1 6.1 3.626c.887.957 2.585 1 4.535.51z" transform="rotate(-9 53.15 4.183) translate(15.262 14.137)"/>
        <path fill="#25bfd5" d="M7.819 8.469A9.14 9.14 0 0 1 0 3.788 4.7 4.7 0 0 1 4.6 0a4.8 4.8 0 0 1 3.212 8.469z" transform="rotate(-9 53.15 4.183) translate(37.097 7.142)"/>
        <path fill="url(#zxlp0h47ih)" d="M5.514 3.989c-.014-.209-.028-.412 0 0zm1.7 4.451a5.258 5.258 0 0 1 .524.349l-.168-.126a9.023 9.023 0 0 0-7.254 5.646A4.911 4.911 0 0 1 0 12.7a4.8 4.8 0 0 1 1.972-3.98c1.761-1.286 2.054-4.346 1.859-7.2-.008-.109-.05-1.52-.05-1.52a9.53 9.53 0 0 1 1.733 4.018c0-.007.161 3.529 1.7 4.416zm.524.349a.379.379 0 0 1 .063.049.39.39 0 0 1-.065-.048z" transform="rotate(-9 53.15 4.183) translate(37.362 25.372)"/>
        <path fill="url(#58ucpggq4i)" d="M0 5.646A9.013 9.013 0 0 1 7.252 0 4.8 4.8 0 1 1 .007 5.646z" transform="rotate(-9 53.15 4.183) translate(37.677 34.043)"/>
        <path fill="url(#37kparashj)" d="M14.792 0a18.59 18.59 0 0 1 6.072 6.016C14.051 7.441 7.965 15.84 0 18.076c.112-.056.231-.112.343-.175 2.7-1.376 5.254-3.186 4.891-5.17a10.2 10.2 0 0 1-.175-1.747A10.807 10.807 0 0 1 14.8 0z" transform="rotate(-9 53.15 4.183) translate(26.812 .058)"/>
        <path fill="url(#th7cyw63xk)" d="M11.2 7.01h-.014c-.056-.154-.112-.307-.168-.454.064.144.127.301.182.454zm-5.128-.943A18.59 18.59 0 0 0 0 .051C.279.023.559.009.845 0a10.807 10.807 0 0 1 10.146 6.514 9.158 9.158 0 0 0-4.926-.447h.007z" transform="rotate(-9 53.15 4.183) translate(41.597)"/>
        <path fill="url(#qz0hnhffwl)" d="M20.563.168c-.475.245-.957.5-1.446.755-2.439 1.222-4.773 2.577-4.724 4.96a6.147 6.147 0 0 1-.021.72.89.89 0 0 0-.014.189 7.833 7.833 0 0 1-1.244 3.536 8.955 8.955 0 0 1-3.081 2.725A7.812 7.812 0 0 1 0 10.257C7.281 12.3 8.552 2.781 19.962 0a4.471 4.471 0 0 1 .594.161z" transform="rotate(-9 53.15 4.183) translate(8.66 18.532)"/>
        <path fill="url(#s40kmhzhcm)" d="M.076 6.7a7.808 7.808 0 0 1 13.136-4.525c1.16 1.111 3.3.524 5.506-.5.9-.007 1.481.028 2.452.1C9.774 4.564 8.5 14.066 1.229 12.026A7.823 7.823 0 0 1 .076 6.7z" transform="rotate(-9 53.15 4.183) translate(7.431 16.77)"/>
        <path fill="url(#5whvvk0asn)" d="M8.594 12.095c-.014-.007-.021-.021-.035-.028.014.007.021.021.035.028zm-.475-.349a.148.148 0 0 1-.042-.028.144.144 0 0 1 .042.027zm-.077-.046a.341.341 0 0 0-.049-.021.335.335 0 0 0 .049.021zm-.242-.115l-.049-.021c.012.007.033.014.049.021zm-4.541.957c-.252-.028-.5-.056-.755-.077 6.547-2.69 16.468-6.372 23.239-2.04h.014C26.055 7.455 22.366.44 21.548 0 14.736 1.425 8.65 9.824.678 12.06c-.224.112-.454.224-.678.328a21.671 21.671 0 0 1 2.5.084" transform="rotate(-9 53.15 4.183) translate(26.135 6.081)"/>
        <path fill="url(#au4vlkyzzo)" d="M14.254 14.892a9.488 9.488 0 0 0-1.733-4.018c-.028-2.026-.049-3.521-2.257-4.43a10.142 10.142 0 0 1-3.85-2.473C4.765 2.168 2.8 3.042.608 4.188.4 4.132.2 4.083 0 4.034 6.554 1.337 16.476-2.338 23.246 2A10.81 10.81 0 0 1 16.8 6.773c-1.831.482-2.41 2.955-2.564 5.59a19.123 19.123 0 0 0 .018 2.529z" transform="rotate(-9 53.15 4.183) translate(28.622 14.505)"/>
        <path fill="url(#zawludq4up)" d="M4.947.655a.657.657 0 0 0-.105-.076A9.055 9.055 0 0 0 0 .166c.817.44 4.472 7.392 4.206 10.383a.09.09 0 0 1-.007.042 10.7 10.7 0 0 0 1.607-5.9A10.818 10.818 0 0 0 4.968.725a.327.327 0 0 0-.035-.07z" transform="rotate(-9 53.15 4.183) translate(47.669 5.901)"/>
    </g>
    <path d="M14.86-73.039a4.219 4.219 0 0 1 2.37.745 5.515 5.515 0 0 1 1.808 2 5.661 5.661 0 0 1 .684 2.748 5.682 5.682 0 0 1-.684 2.736 5.488 5.488 0 0 1-1.808 2.02 4.219 4.219 0 0 1-2.37.745h-4.251v4.617a1.5 1.5 0 0 1-.391 1.075 1.344 1.344 0 0 1-1.026.415 1.3 1.3 0 0 1-1-.428 1.516 1.516 0 0 1-.392-1.062v-14.12a1.443 1.443 0 0 1 .428-1.063 1.443 1.443 0 0 1 1.063-.428zm0 8.208a1.4 1.4 0 0 0 .916-.391 2.881 2.881 0 0 0 .733-1.014 3.144 3.144 0 0 0 .281-1.307 3.144 3.144 0 0 0-.281-1.307 2.76 2.76 0 0 0-.733-1 1.424 1.424 0 0 0-.916-.379h-4.251v5.4zm17.1 6.034a1.489 1.489 0 0 1 1.063.4 1.363 1.363 0 0 1 .428 1.038 1.335 1.335 0 0 1-.428 1.014 1.489 1.489 0 0 1-1.063.4h-7.94a1.443 1.443 0 0 1-1.063-.428 1.443 1.443 0 0 1-.428-1.063v-14.12a1.422 1.422 0 0 1 .44-1.063 1.545 1.545 0 0 1 1.124-.428 1.454 1.454 0 0 1 1.05.428 1.422 1.422 0 0 1 .44 1.063V-58.8zm14.209.049a1.443 1.443 0 0 1 1.063.428 1.358 1.358 0 0 1 .428.989 1.3 1.3 0 0 1-.428 1 1.516 1.516 0 0 1-1.063.391h-8.183a1.443 1.443 0 0 1-1.063-.428 1.443 1.443 0 0 1-.428-1.063v-14.12a1.443 1.443 0 0 1 .428-1.063 1.443 1.443 0 0 1 1.063-.428h8.184a1.489 1.489 0 0 1 1.063.4 1.363 1.363 0 0 1 .427 1.042 1.276 1.276 0 0 1-.415.989 1.534 1.534 0 0 1-1.075.379h-6.62v4.153h5.521a1.489 1.489 0 0 1 1.063.4 1.363 1.363 0 0 1 .428 1.038 1.276 1.276 0 0 1-.415.989 1.533 1.533 0 0 1-1.075.379h-5.523v4.52zm17.757.562a1.466 1.466 0 0 1 .293.9 1.349 1.349 0 0 1-.464 1.05 1.477 1.477 0 0 1-1 .415 1.464 1.464 0 0 1-1.2-.635l-4.349-5.79-4.224 5.746a1.456 1.456 0 0 1-1.221.684 1.268 1.268 0 0 1-.928-.391 1.241 1.241 0 0 1-.391-.9 1.585 1.585 0 0 1 .366-1l4.715-6.376-4.715-6.254a1.359 1.359 0 0 1-.318-.879 1.4 1.4 0 0 1 .464-1.05 1.461 1.461 0 0 1 1.026-.44 1.464 1.464 0 0 1 1.2.635l4.3 5.717 4.2-5.594a1.8 1.8 0 0 1 .562-.525 1.261 1.261 0 0 1 .635-.183 1.293 1.293 0 0 1 .953.428 1.325 1.325 0 0 1 .415.941 1.424 1.424 0 0 1-.318.879l-4.764 6.278z" transform="translate(136.99 91.055)"/>
    <path fill="#9ab1ba" d="M-923.682 12974.1a5.82 5.82 0 0 1-2.643-2.018 1.389 1.389 0 0 1-.255-.853 1.494 1.494 0 0 1 .739-1.252 1.516 1.516 0 0 1 .824-.256 1.605 1.605 0 0 1 1.137.541 6.029 6.029 0 0 0 1.776 1.307 5.3 5.3 0 0 0 2.231.426q2.217-.083 2.217-1.676a1.362 1.362 0 0 0-.753-1.252 10.8 10.8 0 0 0-2.345-.852 20.318 20.318 0 0 1-2.686-.909 4.773 4.773 0 0 1-1.791-1.379 3.818 3.818 0 0 1-.754-2.486 3.761 3.761 0 0 1 .782-2.374 5.148 5.148 0 0 1 2.046-1.563 6.625 6.625 0 0 1 2.687-.553 8.221 8.221 0 0 1 2.9.539 5.017 5.017 0 0 1 2.274 1.592 1.578 1.578 0 0 1 .369 1.023 1.314 1.314 0 0 1-.54 1.078 1.424 1.424 0 0 1-.91.313 1.387 1.387 0 0 1-1.023-.4 3.6 3.6 0 0 0-1.322-.994 4.357 4.357 0 0 0-1.833-.369q-2.16 0-2.161 1.563a1.329 1.329 0 0 0 .4 1.006 2.7 2.7 0 0 0 1.009.6q.611.212 1.72.525a18.871 18.871 0 0 1 2.558.88 4.392 4.392 0 0 1 1.734 1.394 3.991 3.991 0 0 1 .71 2.473 3.786 3.786 0 0 1-.824 2.431 5.256 5.256 0 0 1-2.117 1.579 6.884 6.884 0 0 1-2.658.537 9.625 9.625 0 0 1-3.498-.621zm-34.435-.371a6.929 6.929 0 0 1-2.743-2.741 8.005 8.005 0 0 1-.967-3.937 8.716 8.716 0 0 1 1.024-4.292 7.256 7.256 0 0 1 2.7-2.828 6.974 6.974 0 0 1 3.582-.979 6.641 6.641 0 0 1 3.538 1.021 7.652 7.652 0 0 1 2.658 2.758 7.411 7.411 0 0 1 .995 3.751 1.462 1.462 0 0 1-.541 1.11 1.811 1.811 0 0 1-1.193.426h-9.38a4.288 4.288 0 0 0 1.564 2.629 4.358 4.358 0 0 0 2.756.953 6.086 6.086 0 0 0 1.819-.215 4.766 4.766 0 0 0 1.038-.454q.383-.24.526-.327a2.158 2.158 0 0 1 .966-.255 1.393 1.393 0 0 1 1.023.425 1.367 1.367 0 0 1 .427 1 1.775 1.775 0 0 1-.8 1.394 6.829 6.829 0 0 1-2.132 1.107 8.338 8.338 0 0 1-2.7.453 8.377 8.377 0 0 1-4.16-1.002zm-.3-8.555h7.447v-.2a2.936 2.936 0 0 0-1.166-2.046 3.683 3.683 0 0 0-2.387-.852 3.527 3.527 0 0 0-3.892 3.095zm-31.876 8.555a6.928 6.928 0 0 1-2.743-2.741 8.005 8.005 0 0 1-.966-3.937 8.719 8.719 0 0 1 1.023-4.292 7.258 7.258 0 0 1 2.7-2.828 6.973 6.973 0 0 1 3.582-.979 6.64 6.64 0 0 1 3.538 1.021 7.654 7.654 0 0 1 2.658 2.758 7.413 7.413 0 0 1 .995 3.751 1.463 1.463 0 0 1-.541 1.11 1.812 1.812 0 0 1-1.193.426h-9.38a4.288 4.288 0 0 0 1.564 2.629 4.359 4.359 0 0 0 2.756.953 6.082 6.082 0 0 0 1.819-.215 4.766 4.766 0 0 0 1.038-.454q.383-.24.526-.327a2.159 2.159 0 0 1 .966-.255 1.393 1.393 0 0 1 1.023.425 1.367 1.367 0 0 1 .427 1 1.775 1.775 0 0 1-.8 1.394 6.833 6.833 0 0 1-2.132 1.107 8.338 8.338 0 0 1-2.7.453 8.373 8.373 0 0 1-4.158-1.002zm-.3-8.555h7.448v-.2a2.937 2.937 0 0 0-1.166-2.046 3.683 3.683 0 0 0-2.387-.852 3.527 3.527 0 0 0-3.892 3.095zm18.916 9a1.968 1.968 0 0 1-.64-.811l-5.287-11.712a2.248 2.248 0 0 1-.2-.909 1.42 1.42 0 0 1 .483-1.036 1.644 1.644 0 0 1 1.194-.468 1.834 1.834 0 0 1 .995.283 1.747 1.747 0 0 1 .682.8l3.922 8.98 3.894-8.953a1.872 1.872 0 0 1 .625-.824 1.337 1.337 0 0 1 .881-.256 1.565 1.565 0 0 1 1.137.44 1.462 1.462 0 0 1 .454 1.093 2.179 2.179 0 0 1-.227.853l-5.315 11.712a1.776 1.776 0 0 1-.583.768 1.59 1.59 0 0 1-.867.313l-.255.027a1.5 1.5 0 0 1-.89-.306zm39.807-.229a1.7 1.7 0 0 1-.484-1.236v-11.738a1.7 1.7 0 0 1 .484-1.236 1.633 1.633 0 0 1 1.222-.5 1.633 1.633 0 0 1 1.223.5 1.7 1.7 0 0 1 .483 1.236v11.738a1.7 1.7 0 0 1-.483 1.236 1.632 1.632 0 0 1-1.223.5 1.632 1.632 0 0 1-1.219-.506zm-12.137 0a1.7 1.7 0 0 1-.484-1.236v-11.738a1.7 1.7 0 0 1 .484-1.236 1.633 1.633 0 0 1 1.222-.5 1.633 1.633 0 0 1 1.222.5 1.713 1.713 0 0 1 .38.618c.021.052.7-1.351 4.6-1.351a2.764 2.764 0 0 1 1.658.654 1.318 1.318 0 0 1 .355.916 1.754 1.754 0 0 1-.455 1.32 1.49 1.49 0 0 1-1.079.441 3.511 3.511 0 0 1-.76-.131 4.036 4.036 0 0 0-1.13-.069 4.158 4.158 0 0 0-1.193.158c-1.272.433-1.891 1.555-1.891 3.681v6.736a1.7 1.7 0 0 1-.483 1.236 1.632 1.632 0 0 1-1.222.5 1.632 1.632 0 0 1-1.217-.505zm11.605-18.177a1.761 1.761 0 0 1 1.761-1.762 1.761 1.761 0 0 1 1.762 1.762 1.762 1.762 0 0 1-1.762 1.762 1.762 1.762 0 0 1-1.759-1.767z" transform="translate(1054.211 -12939.671)"/>
</svg>
